<?xml version="1.0" standalone="no"?>
<!DOCTYPE svg PUBLIC "-//W3C//DTD SVG 20010904//EN"
 "http://www.w3.org/TR/2001/REC-SVG-20010904/DTD/svg10.dtd">
<svg version="1.0" xmlns="http://www.w3.org/2000/svg"
 width="359.000000pt" height="359.000000pt" viewBox="0 0 359.000000 359.000000"
 preserveAspectRatio="xMidYMid meet">
<metadata>
Created by potrace 1.11, written by Peter Selinger 2001-2013
</metadata>
<g transform="translate(0.000000,359.000000) scale(0.100000,-0.100000)"
fill="#000000" stroke="none">
<path d="M3439 3191 c-122 -39 -289 -183 -378 -326 -30 -48 -78 -144 -108
-213 -105 -252 -149 -329 -237 -418 -126 -126 -233 -166 -382 -144 -217 33
-404 139 -714 406 -102 87 -229 192 -282 232 -252 189 -484 305 -673 335 l-72
11 -28 54 c-16 30 -35 56 -42 59 -8 3 -33 -12 -58 -37 l-43 -42 -28 36 c-41
52 -63 47 -98 -19 -29 -56 -59 -87 -113 -116 -23 -12 -32 -26 -36 -55 -5 -28
-18 -51 -47 -79 -31 -30 -40 -47 -40 -72 0 -28 9 -39 65 -84 36 -28 65 -54 65
-58 0 -4 14 -15 30 -25 27 -15 37 -16 84 -5 99 22 167 -8 169 -74 1 -55 -19
-70 -74 -58 -105 25 -257 4 -330 -44 -72 -47 -90 -140 -39 -198 36 -41 76 -60
121 -55 35 3 52 25 64 81 8 39 33 35 171 -27 144 -65 219 -86 311 -86 97 0
122 10 238 94 9 7 46 -22 129 -100 64 -60 149 -130 188 -157 138 -91 324 -142
556 -154 140 -7 205 -24 275 -71 97 -67 144 -139 227 -344 67 -164 246 -395
407 -523 l88 -71 6 -132 c6 -122 9 -137 38 -197 39 -79 90 -115 164 -115 52 0
50 -4 47 88 -1 40 5 81 16 113 l18 50 -42 82 c-31 62 -43 98 -48 149 -7 74
-17 88 -87 137 -29 19 -54 49 -74 88 -29 55 -31 66 -37 211 -13 290 -61 485
-143 582 l-27 33 24 16 c51 33 138 111 169 150 18 23 64 112 102 198 151 341
219 423 439 533 123 62 162 92 193 148 38 70 38 140 0 182 -30 33 -79 45 -124
31z"/>
<path d="M3116 498 c-32 -45 -6 -98 48 -98 39 0 66 26 66 62 0 55 -83 81 -114
36z m94 -39 c0 -30 -17 -22 -22 11 -4 24 -2 27 9 19 7 -7 13 -20 13 -30z m-70
-1 c-1 -26 -3 -30 -10 -16 -6 9 -7 23 -4 32 9 25 14 19 14 -16z"/>
</g>
</svg>
