<?xml version="1.0" standalone="no"?>
<!DOCTYPE svg PUBLIC "-//W3C//DTD SVG 20010904//EN"
 "http://www.w3.org/TR/2001/REC-SVG-20010904/DTD/svg10.dtd">
<svg version="1.0" xmlns="http://www.w3.org/2000/svg"
 width="1500.000000pt" height="1500.000000pt" viewBox="0 0 1500.000000 1500.000000"
 preserveAspectRatio="xMidYMid meet">
<metadata>
Created by potrace 1.11, written by Peter Selinger 2001-2013
</metadata>
<g transform="translate(0.000000,1500.000000) scale(0.100000,-0.100000)"
fill="#000000" stroke="none">
<path d="M11415 14480 c-632 -65 -1198 -314 -1670 -738 -430 -386 -745 -942
-865 -1527 -64 -313 -70 -702 -14 -1035 56 -334 202 -724 372 -998 29 -46 52
-85 52 -87 0 -4 -252 -165 -383 -244 -559 -337 -1099 -541 -1427 -541 -328 0
-866 204 -1427 541 -198 119 -373 233 -373 244 0 6 11 26 24 45 47 71 137 242
190 362 96 222 170 476 212 733 25 154 30 545 10 720 -77 669 -370 1259 -859
1731 -638 617 -1544 898 -2429 753 -601 -98 -1150 -384 -1573 -820 -142 -147
-218 -240 -332 -412 -238 -356 -390 -770 -454 -1237 -18 -125 -18 -524 -1
-660 68 -537 288 -1051 629 -1465 114 -139 328 -347 460 -448 303 -230 661
-404 1029 -498 262 -67 400 -83 704 -83 277 -1 338 4 574 50 295 58 638 190
893 344 36 22 67 39 68 38 12 -14 188 -290 247 -388 249 -414 428 -821 504
-1146 24 -102 28 -140 28 -269 0 -129 -4 -167 -28 -269 -93 -396 -318 -871
-668 -1408 l-90 -138 -42 25 c-929 566 -2131 547 -3033 -47 -714 -470 -1164
-1192 -1274 -2043 -20 -149 -17 -540 4 -695 70 -501 261 -963 564 -1363 107
-142 391 -423 533 -529 341 -255 702 -421 1110 -512 514 -114 1095 -74 1596
109 128 47 414 188 529 260 662 419 1122 1089 1275 1855 43 217 53 348 47 618
-7 327 -41 526 -143 832 -58 175 -174 426 -262 568 -29 46 -52 85 -52 87 0 4
252 165 383 244 466 280 919 470 1256 526 414 69 1022 -154 1834 -673 81 -52
147 -96 147 -97 0 -2 -26 -46 -57 -97 -165 -271 -298 -622 -358 -942 -39 -214
-48 -335 -42 -594 5 -260 27 -425 87 -649 166 -623 539 -1171 1057 -1555 860
-638 2028 -736 2983 -250 978 498 1585 1526 1547 2622 -20 560 -202 1097 -527
1550 -470 656 -1165 1064 -1995 1171 -165 22 -541 16 -715 -10 -400 -60 -764
-189 -1086 -386 l-42 -25 -90 138 c-365 561 -591 1043 -679 1455 -24 112 -24
332 0 444 88 409 314 895 669 1440 55 84 101 153 103 153 2 0 34 -19 71 -42
96 -58 350 -179 468 -223 644 -238 1373 -229 2022 26 1419 557 2142 2122 1645
3559 -103 300 -239 550 -440 815 -89 117 -340 372 -461 469 -223 177 -537 355
-795 450 -166 61 -393 119 -571 146 -159 24 -521 35 -669 20z m465 -260 c623
-55 1171 -309 1610 -749 215 -216 353 -406 484 -668 181 -363 269 -737 269
-1148 0 -424 -87 -789 -277 -1162 -387 -761 -1113 -1271 -1976 -1389 -184 -26
-501 -23 -685 5 -255 38 -475 102 -697 201 -105 46 -308 156 -308 166 0 4 156
211 228 302 10 14 16 14 33 4 11 -7 61 -35 112 -62 570 -303 1238 -342 1842
-106 293 115 564 293 773 510 72 74 99 96 120 96 36 1 103 32 163 76 41 30 49
41 49 67 0 40 -23 78 -86 142 -116 118 -503 439 -631 522 -106 69 -307 169
-539 269 l-32 13 38 76 c48 96 64 183 58 311 -10 178 -68 294 -228 454 -110
110 -176 156 -288 198 -60 24 -81 26 -207 27 -165 0 -230 -17 -339 -90 l-67
-45 -127 110 c-178 154 -334 273 -499 382 -78 51 -142 96 -142 100 -1 4 36 39
82 79 249 216 554 355 877 399 122 17 357 14 475 -5 562 -90 1030 -437 1275
-947 57 -118 63 -122 19 -11 -40 103 -108 227 -183 338 -76 113 -301 340 -416
421 -538 379 -1211 437 -1810 157 -153 -71 -282 -157 -447 -299 l-42 -36 -103
55 c-128 69 -239 107 -311 107 -91 0 -237 -88 -237 -143 0 -63 109 -174 434
-441 287 -236 379 -292 739 -452 108 -48 197 -91 197 -96 0 -17 -232 -413
-315 -538 -122 -183 -202 -277 -386 -449 -154 -145 -421 -380 -481 -422 l-26
-19 -40 63 c-54 85 -114 207 -161 324 -39 99 -100 302 -102 338 0 11 -3 14 -6
7 -7 -18 41 -215 85 -343 43 -122 121 -296 167 -369 l28 -44 -34 -29 c-19 -15
-94 -74 -167 -129 -154 -116 -127 -122 -223 45 -147 255 -255 572 -306 897
-26 164 -26 588 0 745 92 555 338 1044 722 1430 533 536 1302 820 2045 755z
m-8270 -26 c437 -51 875 -228 1238 -501 433 -325 772 -817 921 -1336 68 -236
91 -388 98 -647 11 -415 -64 -779 -239 -1160 -50 -110 -159 -300 -171 -300
-23 0 -586 444 -595 469 -1 4 15 39 37 77 22 38 52 97 67 131 l27 63 41 -7
c22 -4 111 -7 196 -8 142 0 159 2 207 24 62 27 107 74 148 152 28 55 28 58 12
82 -38 59 -158 107 -552 222 -365 106 -478 125 -762 125 -87 0 -167 3 -178 6
-14 3 -52 62 -115 172 -141 248 -222 367 -309 452 -133 130 -255 176 -451 168
-191 -8 -302 -61 -467 -223 l-102 -101 -53 19 c-344 118 -932 237 -1180 237
-31 0 -59 3 -61 8 -7 11 62 183 117 291 239 471 676 847 1182 1014 233 78 420
108 669 108 424 1 822 -121 1177 -359 111 -74 266 -202 334 -273 41 -44 182
-212 217 -259 18 -25 18 -25 1 5 -47 82 -171 233 -284 345 -673 673 -1711 824
-2560 373 -384 -204 -707 -526 -909 -905 -53 -98 -135 -284 -146 -331 -4 -16
-19 -35 -34 -44 -64 -40 -151 -155 -151 -200 0 -49 68 -93 235 -153 145 -51
597 -178 692 -195 114 -20 324 -35 491 -35 l132 0 0 -67 c0 -159 52 -276 180
-404 97 -97 177 -152 445 -304 409 -232 539 -328 769 -567 189 -197 184 -175
56 -235 -246 -115 -466 -164 -735 -164 -426 0 -812 148 -1142 438 l-98 86 75
-77 c244 -251 539 -412 902 -492 113 -25 142 -28 348 -28 197 -1 239 2 338 22
141 28 293 78 413 134 l92 42 49 -54 c94 -104 407 -499 441 -557 9 -15 -150
-106 -306 -176 -534 -238 -1125 -289 -1698 -147 -612 153 -1147 528 -1502
1052 -224 331 -365 698 -423 1103 -21 147 -24 484 -5 630 61 476 235 906 519
1279 164 216 462 485 692 623 510 307 1072 427 1670 357z m564 -3102 c44 -48
160 -167 258 -265 l178 -178 -32 -40 c-17 -21 -34 -39 -37 -39 -10 0 -139 135
-215 223 -104 121 -286 371 -286 393 0 3 12 3 28 0 17 -4 56 -39 106 -94z
m498 -56 c64 -12 120 -25 124 -28 7 -7 -65 -168 -75 -168 -3 1 -60 53 -126
116 l-120 116 40 -7 c22 -4 93 -17 157 -29z m7481 -66 c276 -244 609 -476 924
-642 l102 -54 -87 -85 c-208 -203 -405 -337 -652 -442 -562 -238 -1192 -219
-1740 52 -57 29 -106 54 -107 55 -11 10 439 510 578 642 74 70 216 177 338
255 98 62 522 307 534 308 4 1 53 -40 110 -89z m-707 17 c-105 -79 -247 -194
-341 -278 -187 -165 -519 -514 -665 -696 l-33 -43 -46 37 c-25 20 -48 38 -50
40 -7 5 45 66 171 203 269 290 602 556 888 709 104 55 121 62 76 28z m-6615
-528 c99 -85 357 -286 446 -348 29 -20 52 -40 52 -46 0 -5 -17 -30 -38 -54
l-38 -43 -114 82 c-127 92 -294 227 -411 333 l-77 69 37 44 c20 24 39 44 42
44 4 0 49 -36 101 -81z m5493 -507 c24 -21 34 -37 29 -45 -6 -10 -212 -284
-229 -306 -3 -4 -104 70 -104 76 0 5 137 191 192 261 54 67 53 67 112 14z
m-4239 -364 c99 -58 251 -144 338 -193 87 -48 156 -89 154 -92 -8 -7 -346 127
-511 204 -151 69 -515 265 -566 303 l-23 17 38 46 37 45 177 -112 c97 -62 257
-160 356 -218z m3839 -170 c22 -17 43 -33 44 -34 2 -1 -14 -29 -35 -61 -127
-188 -336 -535 -488 -808 -43 -77 -84 -149 -92 -160 -14 -19 -15 -19 -8 5 20
68 141 364 212 515 97 208 301 575 319 575 3 0 25 -14 48 -32z m-2133 -557
c582 -135 1021 -594 1120 -1169 131 -772 -366 -1499 -1141 -1668 -122 -27
-458 -27 -580 0 -293 64 -524 190 -735 401 -211 211 -338 442 -401 735 -27
121 -27 449 0 570 63 293 190 524 401 735 237 237 499 367 840 419 17 2 116 3
220 1 145 -3 210 -8 276 -24z m-2237 -2493 c-111 -286 -297 -663 -439 -888
-28 -44 -28 -44 -87 2 l-38 30 29 41 c108 158 372 597 530 882 35 63 66 113
68 111 2 -2 -26 -82 -63 -178z m-1924 -582 c288 -39 556 -122 815 -251 94 -47
181 -93 194 -104 l24 -18 -63 -84 c-35 -46 -85 -112 -112 -146 l-49 -62 -65
39 c-145 89 -383 187 -571 234 -154 39 -285 57 -452 63 l-155 6 -43 33 c-46
35 -174 71 -217 60 -63 -16 -77 -177 -52 -611 23 -390 40 -478 158 -828 33
-98 59 -179 57 -181 -2 -2 -51 -31 -109 -66 -144 -86 -227 -148 -301 -228
-121 -128 -164 -249 -156 -437 7 -188 62 -300 227 -465 110 -110 179 -158 281
-195 33 -12 65 -28 70 -36 5 -8 9 -66 9 -129 0 -179 27 -462 66 -684 8 -48 13
-91 10 -94 -10 -9 -260 27 -359 53 -379 98 -711 327 -941 649 -160 223 -258
481 -300 784 -14 99 -7 357 13 474 22 124 74 297 121 404 16 35 27 64 24 64
-11 0 -93 -189 -127 -291 -55 -164 -79 -300 -84 -492 -6 -184 3 -285 43 -459
139 -616 622 -1120 1250 -1303 96 -28 306 -65 366 -65 35 0 38 -2 48 -42 92
-351 148 -429 329 -460 63 -11 72 -10 90 6 38 34 44 102 38 391 -12 504 -33
640 -152 1003 -41 125 -73 226 -72 227 1 0 29 14 61 30 79 40 199 158 273 270
33 50 113 182 177 295 136 236 255 420 349 536 76 95 329 335 554 528 l158
136 22 -27 c37 -45 129 -223 173 -333 53 -132 85 -242 116 -395 35 -170 44
-487 20 -665 -44 -318 -156 -619 -330 -883 -35 -54 -57 -92 -49 -85 26 21 146
206 201 308 102 190 176 400 219 620 34 174 43 503 19 670 -43 291 -138 577
-263 792 -18 31 -33 60 -33 65 0 16 301 236 310 227 4 -5 40 -64 78 -132 151
-265 259 -579 309 -902 28 -178 25 -589 -5 -764 -46 -266 -113 -478 -226 -712
-130 -268 -262 -457 -471 -672 -415 -429 -918 -683 -1520 -769 -150 -22 -520
-22 -670 0 -596 85 -1102 339 -1510 758 -312 321 -523 687 -640 1114 -218 797
-41 1643 481 2295 88 109 275 296 384 384 400 320 898 520 1410 565 132 12
412 5 550 -13z m8220 14 c725 -56 1383 -401 1832 -960 737 -919 753 -2214 39
-3165 -96 -127 -297 -334 -426 -438 -364 -294 -779 -475 -1250 -549 -180 -28
-548 -30 -718 -5 -462 70 -846 227 -1202 492 -880 654 -1247 1798 -914 2842
70 217 198 488 295 621 3 5 90 -59 227 -166 l107 -84 -19 -26 c-40 -57 -135
-242 -179 -347 -99 -241 -149 -483 -159 -760 -12 -361 59 -686 222 -1020 222
-455 560 -792 1018 -1016 132 -64 141 -71 167 -116 32 -55 136 -135 176 -135
69 0 130 115 294 555 125 336 147 431 175 732 8 88 17 183 20 210 l6 50 142 0
c128 1 149 3 209 27 112 42 178 88 288 198 161 161 219 276 228 457 9 198 -38
325 -172 459 -45 44 -96 91 -115 105 l-34 25 65 165 c76 189 153 421 198 594
17 66 33 126 35 132 6 17 32 5 146 -63 528 -313 846 -924 799 -1534 -18 -239
-70 -430 -176 -645 -79 -161 -168 -287 -304 -429 -69 -73 -88 -96 -54 -69 28
23 93 86 145 141 237 247 384 540 456 907 25 130 25 453 -1 590 -93 505 -369
921 -796 1202 -58 38 -120 75 -138 82 -37 16 -37 16 -16 152 10 63 15 140 12
203 -3 89 -7 107 -31 149 -35 60 -136 137 -179 137 -71 0 -128 -110 -307 -592
-114 -307 -135 -400 -167 -743 -9 -99 -17 -181 -18 -182 -2 -2 -73 39 -159 91
-298 179 -425 285 -692 576 -141 154 -354 401 -355 411 0 3 18 14 40 24 23 10
43 22 46 27 4 5 -17 -2 -44 -16 l-51 -26 -69 88 c-37 48 -97 125 -132 171
l-63 84 24 19 c48 38 367 188 484 228 349 119 701 167 1045 140z m-3289 -276
c95 -36 244 -100 333 -141 163 -75 526 -271 571 -308 l24 -20 -37 -43 -38 -44
-182 116 c-207 130 -463 282 -694 410 -216 120 -215 121 23 30z m-3667 -270
l47 -36 -17 -26 c-37 -57 -173 -238 -192 -255 -19 -17 -21 -16 -63 19 -24 20
-44 40 -44 43 0 10 209 290 216 291 3 0 27 -16 53 -36z m-1299 4 c124 -14 282
-51 406 -94 127 -44 339 -143 339 -158 -1 -25 -380 -447 -535 -595 -116 -110
-326 -265 -337 -248 -4 7 -8 38 -8 70 0 177 -67 621 -130 871 -22 87 -40 162
-40 167 0 11 157 5 305 -13z m6213 -410 c48 -34 118 -87 156 -118 39 -30 74
-58 80 -62 8 -6 -55 -88 -75 -96 -3 -1 -81 53 -171 121 l-165 124 36 47 c19
25 39 46 44 46 5 0 48 -28 95 -62z m-5183 -36 c0 -20 -245 -279 -381 -403
-159 -145 -296 -253 -448 -353 -112 -75 -336 -197 -282 -154 16 13 75 59 130
102 235 184 532 474 770 748 l119 138 46 -33 c25 -18 46 -38 46 -45z m5527
-234 c191 -162 452 -436 600 -628 114 -149 259 -377 289 -458 13 -33 8 -28
-72 78 -204 272 -639 709 -943 947 l-28 22 39 50 c21 28 39 50 40 51 1 0 35
-28 75 -62z m-82 -380 c205 -176 459 -416 527 -498 95 -117 178 -237 275 -402
51 -87 131 -222 177 -300 46 -79 108 -176 138 -215 l55 -73 -62 -147 c-82
-197 -179 -490 -229 -693 -41 -166 -91 -430 -91 -482 0 -16 -2 -28 -4 -28 -1
0 -46 20 -99 45 -208 97 -407 237 -571 401 -316 315 -506 685 -587 1139 -28
156 -30 466 -5 623 39 248 109 463 217 672 l62 120 26 -19 c14 -10 91 -75 171
-143z"/>
<path d="M9552 11310 c0 -14 2 -19 5 -12 2 6 2 18 0 25 -3 6 -5 1 -5 -13z"/>
<path d="M7405 8584 c-166 -15 -302 -52 -435 -119 -296 -150 -507 -408 -597
-731 -26 -92 -28 -112 -28 -289 0 -177 2 -197 28 -289 120 -431 464 -750 896
-832 175 -33 410 -17 577 40 360 122 641 423 741 793 25 90 27 114 27 288 0
174 -2 198 -27 288 -115 425 -470 756 -891 831 -89 16 -228 25 -291 20z m255
-340 c249 -55 453 -219 565 -457 57 -119 70 -184 70 -342 0 -158 -13 -223 -70
-342 -140 -298 -418 -475 -745 -475 -370 -1 -678 230 -792 592 -20 65 -23 96
-23 225 0 129 3 160 23 225 134 426 543 668 972 574z"/>
<path d="M7379 8120 c-229 -36 -416 -176 -515 -385 -48 -100 -64 -174 -64
-290 0 -208 83 -388 242 -522 123 -105 268 -156 438 -156 307 0 552 180 656
483 15 44 19 84 19 195 0 151 -9 192 -65 305 -87 173 -251 307 -435 354 -78
20 -205 27 -276 16z m132 -142 c18 -67 14 -184 -10 -258 -41 -128 -151 -242
-278 -290 -73 -28 -199 -36 -268 -18 -46 12 -50 15 -53 47 -5 53 26 175 65
253 86 171 293 305 475 307 l57 1 12 -42z m-1 -502 c28 -35 -11 -93 -47 -70
-36 22 -23 84 17 84 10 0 23 -7 30 -14z m496 -259 c13 -13 -55 -116 -116 -177
-65 -65 -161 -127 -180 -115 -15 10 -12 111 6 153 26 63 90 119 164 143 26 9
116 6 126 -4z"/>
<path d="M4969 1913 c-13 -16 -12 -17 4 -4 16 13 21 21 13 21 -2 0 -10 -8 -17
-17z"/>
<path d="M12739 1883 c-13 -16 -12 -17 4 -4 16 13 21 21 13 21 -2 0 -10 -8
-17 -17z"/>
</g>
</svg>
