<?xml version="1.0" encoding="utf-8"?>
<!-- Generator: Adobe Illustrator 18.1.1, SVG Export Plug-In . SVG Version: 6.00 Build 0)  -->
<svg version="1.1" id="Layer_1" xmlns="http://www.w3.org/2000/svg" xmlns:xlink="http://www.w3.org/1999/xlink" x="0px" y="0px"
	 viewBox="0 0 250 150" enable-background="new 0 0 250 150" xml:space="preserve">
<g>
	<path fill-rule="evenodd" clip-rule="evenodd" d="M50.1,74.6h-9.4H26.1l0,0c-1.8,0-1.8,0-1.8,1.3l0,0v48.4l0,0c0,0,0,0-0.1,0l0,0v0
		l0,0c0,0.3,0.3,1.1,1.4,1.1c1,0,10.6,0,11.6,0c1.1,0,1.1,0,1.1-1l0,0v-9.7l0,0c0-1.3,0-1.5,1.3-1.5l0,0h1h9.4l0,0
		c5.5-0.2,6.9-1.5,6.9-7.8l0,0V81.1l0,0C57,75.8,55.6,74.6,50.1,74.6L50.1,74.6L50.1,74.6L50.1,74.6z M42.9,104.6
		c-0.1,1.5-1.2,2.3-2.3,2.3c-1.2,0-2.3-0.8-2.3-2.4l0,0V82.4l0,0c0-1.5,1.1-2.3,2.3-2.3c1.2,0,2.3,0.8,2.3,2.4l0,0V104.6L42.9,104.6
		L42.9,104.6z"/>
	<path fill-rule="evenodd" clip-rule="evenodd" d="M94.9,75.8c0-1.2-0.2-0.8-1.3-1.2l0,0H82.1l0,0c-1.3,0-1.3,0-1.3,1.2l0,0l0,40.1
		l0,0c0,3.9-4.4,3.8-4.4,0l0,0V75.8l0,0c0-1.2,0-1.2-1.2-1.2l0,0h-12l0,0c-1.4,0-1.4,0-1.4,1.2l0,0v42.4l0,0c0,6.3,1.4,7.3,5.2,7.3
		l0,0h22.2l0,0c4.3,0,5.8-1.2,5.6-6.9l0,0V75.8L94.9,75.8L94.9,75.8z"/>
	<path fill-rule="evenodd" clip-rule="evenodd" d="M144.9,74.6h-39.6l0,0c-4.7,0-6.1,1.2-6.1,5.8l0,0v44l0,0c0,1,0,1,1.4,1l0,0h11.1
		l0,0c1.5,0,1.5,0,1.5-1l0,0V83l0,0c0-3.6,4.4-4,4.4,0l0,0v41.5l0,0c0,1,0,1,1.7,1l0,0h11.1l0,0c1.3,0,1.3,0,1.3-1l0,0V83l0,0
		c0-3.4,4.4-3.6,4.4,0l0,0v41.5l0,0c0,1,0,1,1.4,1l0,0H149l0,0c1.3,0,1.3,0,1.3-1l0,0V80.1l0,0C150.3,75.8,148.9,74.6,144.9,74.6
		L144.9,74.6L144.9,74.6L144.9,74.6z"/>
	<path fill-rule="evenodd" clip-rule="evenodd" d="M183.4,74.6h-11.5h-11l0,0c-3.7,0-5.3,1.2-5.3,5.5l0,0v44.3l0,0c0,1,0,1,1.5,1
		l0,0h11.1l0,0c1.4,0,1.4,0,1.4-1l0,0v-9.9l0,0c0.1-1.5,1.2-2.3,2.2-2.4c1.1,0,2.3,0.8,2.3,2.5l0,0v9.7l0,0c0,1,0,1,1.4,1l0,0h11.5
		l0,0c1.1,0,1.1,0,1.1-1l0,0V80.1l0,0C188.2,75.8,187.1,74.6,183.4,74.6L183.4,74.6L183.4,74.6L183.4,74.6z M174.2,104.6
		c0,1.4-1.1,2.1-2.3,2c-1.1,0-2.2-0.7-2.2-2l0,0V83l0,0c0-1.5,1.1-2.2,2.2-2.2c1.1,0,2.3,0.8,2.3,2.2l0,0V104.6L174.2,104.6
		L174.2,104.6z"/>
	<path fill-rule="evenodd" clip-rule="evenodd" d="M200.6,117.5c0,0-0.1,0-0.1,0c-3.3,0-6.1,2.7-6.1,6.1c0,3.3,2.7,6.1,6.1,6.1
		c0,0,0.1,0,0.1,0c3.4,0,6-2.7,6-6.1C206.6,120.3,203.9,117.6,200.6,117.5L200.6,117.5L200.6,117.5L200.6,117.5z M205.3,124.1
		c-0.4,2.6-2.4,4.3-4.8,4.3c-0.6,0-1.3-0.1-1.9-0.3c-2-1-3.1-2.7-3-5c0.4-2.7,2.6-4.4,4.9-4.4c1.3,0,2.7,0.5,3.7,1.8
		C205.1,121.7,205.4,122.7,205.3,124.1L205.3,124.1L205.3,124.1L205.3,124.1z"/>
	<path fill-rule="evenodd" clip-rule="evenodd" d="M202.5,123.7c0.4-0.4,0.7-1,0.7-1.6c0-0.6-0.3-1.1-0.8-1.5
		c-0.5-0.4-1.1-0.6-1.8-0.6c-0.1,0-0.1,0-0.2,0l0,0h-2.4l0,7.3h1.2l0-2.8h0.9l0.6,0.8l1.5,2h1.2l-2.3-2.9l0,0
		C201.5,124.4,202,124.1,202.5,123.7L202.5,123.7L202.5,123.7L202.5,123.7z M200.3,123.5h-1.2l0-2.7h1.3l0,0c0.1,0,0.2,0,0.2,0
		c0.4,0,0.8,0.2,1,0.4c0.3,0.2,0.5,0.6,0.5,0.9c0,0.4-0.2,0.7-0.5,1c-0.3,0.2-0.6,0.4-1,0.4C200.5,123.5,200.4,123.5,200.3,123.5
		L200.3,123.5L200.3,123.5L200.3,123.5z"/>
	<path fill-rule="evenodd" clip-rule="evenodd" d="M238.8,22.9c-1.1-1.7-3.4-1.2-6.1,0.1c-3.6,1.5-10.1,8.7-11.6,12.7
		c-1.4,5.7-4.7,11-10,16.8c-5.4,4.4-14.9,2.6-20.4-0.9c-0.3,0-23-17.6-23-17.6c-8.1-6.4-13.8-9.2-20.6-10c-0.3-0.2-0.6-0.5-0.8-0.8
		c-1.1-2.4-1.3-2.2-2-2.7c-0.9,0.7-1.5,1.1-2.4,1.3c-0.4,0-0.5,0-0.7-0.1c-0.5-0.2-1.1-0.7-1.7-0.8c-0.7,0.1-1.2,1.5-2.2,2.9
		c0,0-1.6,1.4-3,2.6c-0.5,0.5-0.6,1.2-1,1.7c-0.8,0.8-1.6,2.2-1.8,2.2c-0.3,1-0.5,1.8,0.1,2.3c0,1.1,0.5,1.3,0.8,1.6
		c0.2,0.3,0.2,0.5,0.4,0.7c0.4,0.2,0.8,0.2,1.2,0.3c2.2,2,3.1,2,5.6,1.6c4.4,0.3,4,1.8,3.9,4c-0.3,0.3-0.3,0.3-0.7,0.5
		c-1.9,0-4-0.4-6-0.4c-4.3,0.4-8,1.1-7.6,6.3c0.3,2,3.9,4.8,5.8,1c0.3-1.7,1.7-1,3-0.5c7.7,3.3,13.8,5,17.9,1.6
		c1.2-1.5,2-0.4,3.2,0.5c6.2,7.3,15,12.1,28.6,12.2c4.5,1.1,8,3,9.7,7.5c4.2,10.8,9.5,19.5,17.4,24c-0.7,6.8-0.4,12.5,6.5,13.9
		c1.8-1.5-0.7-3.7,1.4-8.7c-0.2-2.2-2.1-4-2.7-8.3c-8-6.6-4.6-9.3-5.8-13.6c-0.1-6.4-1.5-11.3-4.2-16.1c-0.3-0.8,0.2-1.4,0.9-1.8
		c4.5-3.4,7-6.7,8.1-9.9c1.7-5.7,4.5-10.2,8.6-13.4c3.4-2.7,6.7-3.6,10.4-6C240.2,25.6,239.8,24.6,238.8,22.9L238.8,22.9L238.8,22.9
		L238.8,22.9z"/>
</g>
</svg>
