<?xml version="1.0" encoding="utf-8"?>
<!-- Generator: Adobe Illustrator 18.1.1, SVG Export Plug-In . SVG Version: 6.00 Build 0)  -->
<svg version="1.1" id="Layer_1" xmlns="http://www.w3.org/2000/svg" xmlns:xlink="http://www.w3.org/1999/xlink" x="0px" y="0px"
	 viewBox="0 187 612 440" enable-background="new 0 187 612 440" xml:space="preserve">
<path fill="#FFFFFF" d="M576.2,211.4c-5.2-8.3-16.1-5.7-29.4,0.8c-17.1,7.3-48.3,41.8-55.8,61c-6.8,27.5-22.6,53-48.1,80.5
	c-25.7,21-71.7,12.7-98.2-4.2c-1.6,0-110.4-84.7-110.4-84.7c-39-30.7-66-44.2-98.7-48.1c-1.6-1-3.1-2.6-3.6-3.9
	c-5.2-11.4-6-10.4-9.6-13.2c-4.2,3.4-7.3,5.2-11.7,6.5c-2.1,0-2.3,0-3.4-0.8c-2.6-1-5.5-3.4-8.3-3.6c-3.4,0.8-6,7.3-10.4,13.8
	c0,0-7.5,6.5-14.5,12.2c-2.6,2.3-2.9,6-4.7,8.1c-3.6,3.9-7.8,10.4-8.6,10.4c-1.6,4.7-2.3,8.8,0.8,10.9c0,5.2,2.6,6.5,3.6,7.5
	c0.8,1.6,1,2.3,2.1,3.4c2.1,0.8,3.6,1,5.7,1.6c10.4,9.6,14.8,9.6,27,7.8c21,1.6,19.2,8.6,18.7,19.2c-1.3,1.6-1.6,1.6-3.1,2.3
	c-9.4,0-19.2-2.1-28.6-2.1c-20.5,1.8-38.2,5.5-36.6,30.1c1.3,9.6,19,23.1,28.1,4.9c1.3-8.3,8.3-4.7,14.5-2.6
	c36.9,15.8,66.2,24.2,85.7,7.5c6-7.3,9.6-2.1,15.6,2.3c29.6,35.1,72,57.9,137.2,59c21.8,5.5,38.2,14.5,46.5,35.8
	c20.3,51.7,46,93.5,83.4,115.3c-3.1,32.7-1.8,59.7,31.2,67c8.8-7-3.4-17.7,6.5-41.8c-0.8-10.7-10.1-19.5-13.2-39.7
	c-38.4-31.4-22.1-44.4-28.1-65.5c-0.5-30.7-7.3-54.3-20.3-77.7c-1.6-3.9,1-6.5,4.4-8.6c21.8-16.4,33.5-32.2,38.7-47.5
	c8.1-27.5,21.8-49.1,41-64.4c16.4-13.2,32-17.1,49.9-28.8C582.9,224.7,581.3,219.8,576.2,211.4L576.2,211.4L576.2,211.4L576.2,211.4
	z"/>
</svg>
