<?xml version="1.0" encoding="utf-8"?>
<!-- Generator: Adobe Illustrator 18.1.1, SVG Export Plug-In . SVG Version: 6.00 Build 0)  -->
<svg version="1.1" id="Layer_1" xmlns="http://www.w3.org/2000/svg" xmlns:xlink="http://www.w3.org/1999/xlink" x="0px" y="0px"
	 viewBox="0 0 235.6 197.7" enable-background="new 0 0 235.6 197.7" xml:space="preserve">
<path fill-rule="evenodd" clip-rule="evenodd" d="M221.8,27.8c-2-3.2-6.2-2.2-11.3,0.3c-6.6,2.8-18.6,16.1-21.5,23.5
	c-2.6,10.6-8.7,20.4-18.5,31c-9.9,8.1-27.6,4.9-37.8-1.6c-0.6,0-42.5-32.6-42.5-32.6c-15-11.8-25.4-17-38-18.5
	c-0.6-0.4-1.2-1-1.4-1.5c-2-4.4-2.3-4-3.7-5.1c-1.6,1.3-2.8,2-4.5,2.5c-0.8,0-0.9,0-1.3-0.3c-1-0.4-2.1-1.3-3.2-1.4
	c-1.3,0.3-2.3,2.8-4,5.3c0,0-2.9,2.5-5.6,4.7c-1,0.9-1.1,2.3-1.8,3.1c-1.4,1.5-3,4-3.3,4c-0.6,1.8-0.9,3.4,0.3,4.2
	c0,2,1,2.5,1.4,2.9c0.3,0.6,0.4,0.9,0.8,1.3c0.8,0.3,1.4,0.4,2.2,0.6c4,3.7,5.7,3.7,10.4,3c8.1,0.6,7.4,3.3,7.2,7.4
	c-0.5,0.6-0.6,0.6-1.2,0.9c-3.6,0-7.4-0.8-11-0.8c-7.9,0.7-14.7,2.1-14.1,11.6c0.5,3.7,7.3,8.9,10.8,1.9c0.5-3.2,3.2-1.8,5.6-1
	c14.2,6.1,25.5,9.3,33,2.9c2.3-2.8,3.7-0.8,6,0.9c11.4,13.5,27.7,22.3,52.8,22.7c8.4,2.1,14.7,5.6,17.9,13.8
	c7.8,19.9,17.7,36,32.1,44.4c-1.2,12.6-0.7,23,12,25.8c3.4-2.7-1.3-6.8,2.5-16.1c-0.3-4.1-3.9-7.5-5.1-15.3
	c-14.8-12.1-8.5-17.1-10.8-25.2c-0.2-11.8-2.8-20.9-7.8-29.9c-0.6-1.5,0.4-2.5,1.7-3.3c8.4-6.3,12.9-12.4,14.9-18.3
	c3.1-10.6,8.4-18.9,15.8-24.8c6.3-5.1,12.3-6.6,19.2-11.1C224.4,32.9,223.8,31,221.8,27.8L221.8,27.8L221.8,27.8L221.8,27.8z"/>
</svg>
